<svg xmlns="http://www.w3.org/2000/svg" viewBox="0 0 24 24" fill="currentColor" aria-hidden="true">
    <path d="M20.3,3.3C18.9,2.5,17.3,2,15.8,1.8C15.7,2.1,15.5,2.6,15.4,2.9C13.8,2.6,12.1,2.6,10.6,2.9C10.5,2.6,10.3,2.1,10.2,1.8C8.7,2,7.1,2.5,5.7,3.3C3.5,6.9,2.9,10.4,3.8,13.7C5.5,15.1,7.3,16,9,16.5C9.2,16.2,9.5,15.8,9.7,15.4C9.2,15.2,8.7,15,8.2,14.7C8.4,14.7,8.5,14.6,8.6,14.5C11.3,15.8,14.6,15.8,17.4,14.5C17.5,14.6,17.6,14.7,17.8,14.7C17.3,15,16.8,15.2,16.3,15.4C16.5,15.8,16.8,16.2,17,16.5C18.7,16,20.5,15.1,22.2,13.7C23.2,9.8,22.2,6.4,20.3,3.3 M9.9,11.9C9.1,11.9,8.4,11.2,8.4,10.3C8.4,9.4,9.1,8.7,9.9,8.7C10.8,8.7,11.5,9.4,11.5,10.3C11.5,11.2,10.8,11.9,9.9,11.9 M16.1,11.9C15.2,11.9,14.5,11.2,14.5,10.3C14.5,9.4,15.2,8.7,16.1,8.7C16.9,8.7,17.6,9.4,17.6,10.3C17.6,11.2,16.9,11.9,16.1,11.9"/>
</svg>